<?xml version="1.0" encoding="utf-8"?>
<!-- Generator: Adobe Illustrator 24.2.0, SVG Export Plug-In . SVG Version: 6.00 Build 0)  -->
<svg version="1.1" id="Layer_1" xmlns="http://www.w3.org/2000/svg" xmlns:xlink="http://www.w3.org/1999/xlink" x="0px" y="0px"
	 viewBox="0 0 1024 1024" style="enable-background:new 0 0 1024 1024;" xml:space="preserve">
<style type="text/css">
	.st0{fill:#FFFFFF;}
</style>
<rect width="1024" height="1024"/>
<g>
	<g>
		<polygon class="st0" points="480.1,348 512,118.7 543.9,348 		"/>
	</g>
</g>
<g>
	<g>
		<polygon class="st0" points="389.8,398.1 280.8,193.8 441.4,360.6 		"/>
	</g>
</g>
<g>
	<g>
		<polygon class="st0" points="346.2,491.7 138,390.5 365.9,431 		"/>
	</g>
</g>
<g>
	<g>
		<polygon class="st0" points="365.9,593 138,633.5 346.2,532.3 		"/>
	</g>
</g>
<g>
	<g>
		<polygon class="st0" points="441.4,663.4 280.8,830.2 389.8,625.9 		"/>
	</g>
</g>
<g>
	<g>
		<polygon class="st0" points="543.9,676 512,905.3 480.1,676 		"/>
	</g>
</g>
<g>
	<g>
		<polygon class="st0" points="634.2,625.9 743.2,830.2 582.6,663.4 		"/>
	</g>
</g>
<g>
	<g>
		<polygon class="st0" points="677.8,532.3 886,633.5 658.1,593 		"/>
	</g>
</g>
<g>
	<g>
		<polygon class="st0" points="658.1,431 886,390.5 677.8,491.7 		"/>
	</g>
</g>
<g>
	<g>
		<polygon class="st0" points="582.6,360.6 743.2,193.8 634.2,398.1 		"/>
	</g>
</g>
</svg>
