<?xml version="1.0" encoding="utf-8"?>
<!-- Generator: Adobe Illustrator 24.2.0, SVG Export Plug-In . SVG Version: 6.00 Build 0)  -->
<svg version="1.1" id="Layer_1" xmlns="http://www.w3.org/2000/svg" xmlns:xlink="http://www.w3.org/1999/xlink" x="0px" y="0px"
	 viewBox="0 0 1024 1024" style="enable-background:new 0 0 1024 1024;" xml:space="preserve">
<g>
	<polygon points="462,304.1 512,0 562,304.1 	"/>
</g>
<g>
	<polygon points="599.4,316.2 818.6,99.6 680.3,375 	"/>
</g>
<g>
	<polygon points="703.5,406.9 1008.1,360.5 734.4,502 	"/>
</g>
<g>
	<polygon points="734.4,541.3 1008.1,682.9 703.5,636.4 	"/>
</g>
<g>
	<polygon points="680.3,668.3 818.6,943.7 599.4,727.1 	"/>
</g>
<g>
	<polygon points="562,739.2 512,1043.3 462,739.2 	"/>
</g>
<g>
	<polygon points="424.6,727.1 205.4,943.7 343.7,668.3 	"/>
</g>
<g>
	<polygon points="320.5,636.4 15.9,682.9 289.6,541.3 	"/>
</g>
<g>
	<polygon points="289.6,502 15.9,360.5 320.5,406.9 	"/>
</g>
<g>
	<polygon points="343.7,375 205.4,99.6 424.6,316.2 	"/>
</g>
</svg>
