<svg xmlns="http://www.w3.org/2000/svg" width="234.421" height="93.842" viewBox="0 0 234.421 93.842"><circle cx="15.864" cy="15.864" r="15.864" transform="translate(125.613 31.055)" fill="none"/><path d="M315.4,17.7,317.39,0l1.99,17.7Z" transform="translate(-175.913)" fill="#ffeedf"/><path d="M338.27,22.352,346.2,6.4l-4.184,17.314Z" transform="translate(-188.669 -3.57)" fill="#ffeedf"/><path d="M358.93,37.1l12.9-12.281-9.853,14.838Z" transform="translate(-200.192 -13.843)" fill="#ffeedf"/><path d="M361.977,153.82l9.853,14.838-12.9-12.281Z" transform="translate(-200.192 -85.792)" fill="#ffeedf"/><path d="M342.012,166.65l4.184,17.31-7.925-15.952Z" transform="translate(-188.669 -92.948)" fill="#ffeedf"/><path d="M319.38,172.17l-1.99,17.7-1.99-17.7Z" transform="translate(-175.913 -96.027)" fill="#ffeedf"/><path d="M291.545,168.008,283.62,183.96l4.184-17.31Z" transform="translate(-158.188 -92.948)" fill="#ffeedf"/><path d="M264.611,156.376l-12.9,12.281,9.853-14.838Z" transform="translate(-140.39 -85.792)" fill="#ffeedf"/><path d="M261.563,39.658,251.71,24.82l12.9,12.281Z" transform="translate(-140.39 -13.843)" fill="#ffeedf"/><path d="M287.8,23.714,283.62,6.4l7.925,15.952Z" transform="translate(-158.188 -3.57)" fill="#ffeedf"/><path d="M0,77.142l4.4-1.008c1.079,6.7,4.776,10.349,12.1,10.349,6.687,0,9.553-2.786,9.553-6.965,0-4.246-2.654-6.3-10.508-7.762C5.157,69.845,1.769,65.8,1.769,60.027c0-6.5,4.524-10.747,13.564-10.747S28.149,53.924,29.675,61.1l-4.586.986c-1.274-5.749-3.565-8.757-9.933-8.757-5.984,0-8.845,2.455-8.845,6.435,0,3.649,2.034,6.1,10.76,7.894C27.835,69.778,30.635,73.692,30.635,79.2c0,6.766-4.14,11.344-14.263,11.344C5.922,90.476,1.084,85.169,0,77.142Z" transform="translate(0 -27.486)" fill="#ffeedf"/><path d="M99.228,94.067h-.442c-1.592,5.307-5.749,8.69-11.017,8.69-6.943,0-10-4.644-10-11.41V71.18h4.392V90.418c0,4.644,1.769,8.16,7.134,8.16,5.922,0,9.871-3.848,9.871-9.619V71.18h4.4v30.847h-4.33Z" transform="translate(-43.376 -39.7)" fill="#ffeedf"/><path d="M153.722,101.107H149.33V70.26h4.33V78.22h.509c1.592-5.307,5.665-8.69,10.955-8.69,6.939,0,9.995,4.644,9.995,11.41v20.167h-4.392V81.935c0-4.644-1.769-8.226-7.134-8.226-5.922,0-9.871,3.848-9.871,9.619Z" transform="translate(-83.288 -38.78)" fill="#ffeedf"/><path d="M224.583,64.67h.394c1.468-5.241,4.843-9.022,10.893-9.022,7.766,0,11.972,5.749,11.972,16.187s-4.4,16.12-11.653,16.12c-6.05,0-9.871-3.848-11.273-9.155H224.6v8.425h-4.4V44.64h4.4Zm18.849,7.165c0-8.16-2.928-12.007-9.106-12.007-5.922,0-9.73,4.179-9.73,10.879v2.322c0,6.435,3.821,10.879,9.73,10.879,6.13,0,9.106-3.98,9.106-12.074Z" transform="translate(-122.816 -24.898)" fill="#ffeedf"/><path d="M287,85.783c0-10.216,5.794-16.253,14.519-16.253s13.184,5.705,13.184,14.2a31.743,31.743,0,0,1-.128,3.251H291.387c.385,6.9,3.887,10.946,10.256,10.946,5.855,0,7.894-3.184,8.978-7.076l3.883,1.194c-1.464,6.1-5.413,9.818-12.861,9.818C292.471,101.837,287,95.866,287,85.783Zm4.453-2.335h19.167c-.257-6.435-3.056-10.172-9.234-10.172C295.655,73.311,292.09,76.695,291.453,83.448Z" transform="translate(-160.073 -38.78)" fill="#ffeedf"/><path d="M375.139,93.827h-.509c-1.53,5.241-5.542,8.027-10.888,8.027-5.8,0-9.362-2.587-9.362-8.491,0-5.108,3.374-9.022,10.38-9.022h10.172V81.488c0-5.108-1.91-7.961-7.262-7.961-4.458,0-6.939,2.322-7.961,6.833l-4.17-1.128c1.327-6.037,5.541-9.553,12.228-9.553,8.023,0,11.525,4.113,11.525,11.742v19.769h-4.139Zm-.19-3.98V87.724h-9.681c-4.268,0-6.634,1.769-6.634,5.241,0,2.654,1.592,5.108,6.3,5.108C371.018,98.073,374.949,94.557,374.949,89.847Z" transform="translate(-197.654 -38.864)" fill="#ffeedf"/><path d="M427.746,101.107h-4.4V70.26h4.334V78.22h.509c1.636-5.387,5.537-8.69,11.017-8.69,5.922,0,8.916,3.649,9.486,9.221h.637c1.327-5.572,4.9-9.221,11.145-9.221,6.882,0,10.066,4.644,10.066,11.41v20.167h-4.4V81.935c0-4.644-1.972-8.226-7.134-8.226-6.05,0-9.871,3.848-9.871,9.619v17.779h-4.392V81.935c0-4.644-1.977-8.226-7.133-8.226-5.922,0-9.871,3.848-9.871,9.619Z" transform="translate(-236.122 -38.78)" fill="#ffeedf"/></svg>