<?xml version="1.0" encoding="utf-8"?>
<!-- Generator: Adobe Illustrator 24.2.1, SVG Export Plug-In . SVG Version: 6.00 Build 0)  -->
<svg version="1.1" id="Layer_1" xmlns="http://www.w3.org/2000/svg" xmlns:xlink="http://www.w3.org/1999/xlink" x="0px" y="0px"
	 viewBox="0 0 234.4 93.8" style="enable-background:new 0 0 234.4 93.8;" xml:space="preserve">
<style type="text/css">
	.st0{fill:#F8E0BA;}
</style>
<path class="st0" d="M139.5,17.7l2-17.7l2,17.7H139.5z"/>
<path class="st0" d="M149.6,18.8l7.9-16l-4.2,17.3L149.6,18.8z"/>
<path class="st0" d="M158.7,23.3L171.6,11l-9.9,14.8L158.7,23.3z"/>
<path class="st0" d="M161.8,68l9.9,14.8l-12.9-12.3L161.8,68z"/>
<path class="st0" d="M153.3,73.7l4.2,17.3l-7.9-16L153.3,73.7z"/>
<path class="st0" d="M143.5,76.1l-2,17.7l-2-17.7H143.5z"/>
<path class="st0" d="M133.4,75.1l-7.9,16l4.2-17.3L133.4,75.1z"/>
<path class="st0" d="M124.2,70.6l-12.9,12.3l9.9-14.8L124.2,70.6z"/>
<path class="st0" d="M121.2,25.8L111.3,11l12.9,12.3L121.2,25.8z"/>
<path class="st0" d="M129.6,20.1l-4.2-17.3l7.9,16L129.6,20.1z"/>
<path class="st0" d="M0,49.7l4.4-1C5.5,55.3,9.2,59,16.5,59c6.7,0,9.6-2.8,9.6-7c0-4.2-2.7-6.3-10.5-7.8c-10.4-1.9-13.8-6-13.8-11.7
	c0-6.5,4.5-10.7,13.6-10.7s12.8,4.6,14.3,11.8l-4.6,1c-1.3-5.7-3.6-8.8-9.9-8.8c-6,0-8.8,2.5-8.8,6.4c0,3.6,2,6.1,10.8,7.9
	c10.8,2.1,13.6,6,13.6,11.5c0,6.8-4.1,11.3-14.3,11.3C5.9,63,1.1,57.7,0,49.7z"/>
<path class="st0" d="M55.9,54.4h-0.4c-1.6,5.3-5.7,8.7-11,8.7c-6.9,0-10-4.6-10-11.4V31.5h4.4v19.2c0,4.6,1.8,8.2,7.1,8.2
	c5.9,0,9.9-3.8,9.9-9.6V31.5h4.4v30.8h-4.3L55.9,54.4z"/>
<path class="st0" d="M70.4,62.3H66V31.5h4.3v8h0.5c1.6-5.3,5.7-8.7,11-8.7c6.9,0,10,4.6,10,11.4v20.2h-4.4V43.2
	c0-4.6-1.8-8.2-7.1-8.2c-5.9,0-9.9,3.8-9.9,9.6V62.3z"/>
<path class="st0" d="M101.8,39.8h0.4c1.5-5.2,4.8-9,10.9-9c7.8,0,12,5.7,12,16.2s-4.4,16.1-11.7,16.1c-6.1,0-9.9-3.8-11.3-9.2h-0.3
	v8.4h-4.4V19.7h4.4L101.8,39.8z M120.6,46.9c0-8.2-2.9-12-9.1-12c-5.9,0-9.7,4.2-9.7,10.9v2.3c0,6.4,3.8,10.9,9.7,10.9
	C117.6,59,120.6,55,120.6,46.9L120.6,46.9z"/>
<path class="st0" d="M126.9,47c0-10.2,5.8-16.3,14.5-16.3s13.2,5.7,13.2,14.2c0,1.1,0,2.2-0.1,3.3h-23.2c0.4,6.9,3.9,10.9,10.3,10.9
	c5.9,0,7.9-3.2,9-7.1l3.9,1.2c-1.5,6.1-5.4,9.8-12.9,9.8C132.4,63.1,126.9,57.1,126.9,47z M131.4,44.7h19.2
	c-0.3-6.4-3.1-10.2-9.2-10.2C135.6,34.5,132,37.9,131.4,44.7z"/>
<path class="st0" d="M177.5,55H177c-1.5,5.2-5.5,8-10.9,8c-5.8,0-9.4-2.6-9.4-8.5c0-5.1,3.4-9,10.4-9h10.2v-2.9c0-5.1-1.9-8-7.3-8
	c-4.5,0-6.9,2.3-8,6.8l-4.2-1.1c1.3-6,5.5-9.6,12.2-9.6c8,0,11.5,4.1,11.5,11.7v19.8h-4.1L177.5,55z M177.3,51v-2.1h-9.7
	c-4.3,0-6.6,1.8-6.6,5.2c0,2.7,1.6,5.1,6.3,5.1C173.4,59.2,177.3,55.7,177.3,51z"/>
<path class="st0" d="M191.6,62.3h-4.4V31.5h4.3v8h0.5c1.6-5.4,5.5-8.7,11-8.7c5.9,0,8.9,3.6,9.5,9.2h0.6c1.3-5.6,4.9-9.2,11.1-9.2
	c6.9,0,10.1,4.6,10.1,11.4v20.2H230V43.2c0-4.6-2-8.2-7.1-8.2c-6,0-9.9,3.8-9.9,9.6v17.8h-4.4V43.2c0-4.6-2-8.2-7.1-8.2
	c-5.9,0-9.9,3.8-9.9,9.6L191.6,62.3z"/>
</svg>
